<?xml version="1.0" encoding="UTF-8" standalone="no"?>
<svg
   xmlns:dc="http://purl.org/dc/elements/1.1/"
   xmlns:cc="http://creativecommons.org/ns#"
   xmlns:rdf="http://www.w3.org/1999/02/22-rdf-syntax-ns#"
   xmlns:svg="http://www.w3.org/2000/svg"
   xmlns="http://www.w3.org/2000/svg"
   height="56.342018"
   width="308.27646"
   version="1.1"
   viewBox="0 0 308.27646 56.342018"
   data-name="Layer 1"
   id="Layer_1">
  <metadata
     id="metadata26">
    <rdf:RDF>
      <cc:Work
         rdf:about="">
        <dc:format>image/svg+xml</dc:format>
        <dc:type
           rdf:resource="http://purl.org/dc/dcmitype/StillImage" />
        <dc:title></dc:title>
      </cc:Work>
    </rdf:RDF>
  </metadata>
  <defs
     id="defs9">
    <style
       id="style2">.cls-1{fill:#171c23;}.cls-2{fill:url(#linear-gradient);}</style>
    <linearGradient
       gradientTransform="translate(-495.83,-421.83)"
       gradientUnits="userSpaceOnUse"
       y2="456.62"
       x2="804.16998"
       y1="456.62"
       x1="712.06"
       id="linear-gradient">
      <stop
         id="stop4"
         stop-color="#ff8839"
         offset="0" />
      <stop
         id="stop6"
         stop-color="#ff3b22"
         offset="1" />
    </linearGradient>
  </defs>
  <path
     id="path11"
     d="M 26.01,31.41 39.65,14.53 H 25.5 L 12.08,31.69 V 0 H 0 v 55.05 h 12.08 v -9.42 l 5.31,-6.33 9.13,15.75 H 40.9 Z"
     class="cls-1" />
  <path
     id="path13"
     d="m 82.53,26.44 a 20.8,20.8 0 0 0 -4.64,-6.87 22.16,22.16 0 0 0 -7.16,-4.63 24.31,24.31 0 0 0 -9.2,-1.7 24,24 0 0 0 -9.12,1.7 22,22 0 0 0 -7.1,4.63 20.47,20.47 0 0 0 -4.63,6.87 21.52,21.52 0 0 0 -1.65,8.38 21.28,21.28 0 0 0 6.3,15.18 21.83,21.83 0 0 0 7.1,4.63 23.82,23.82 0 0 0 9.1,1.71 24.4,24.4 0 0 0 7.8,-1.21 23.06,23.06 0 0 0 6.23,-3.22 20.66,20.66 0 0 0 7.27,-9.76 H 69.77 a 8.3,8.3 0 0 1 -3.19,3.08 9.73,9.73 0 0 1 -5,1.22 10.25,10.25 0 0 1 -3.42,-0.59 11.26,11.26 0 0 1 -3.09,-1.66 11.62,11.62 0 0 1 -2.5,-2.59 11.12,11.12 0 0 1 -1.59,-3.45 h 32.86 c 0.07,-0.46 0.14,-0.93 0.22,-1.4 a 15.75,15.75 0 0 0 0.1,-1.94 21.18,21.18 0 0 0 -1.63,-8.38 z m -31.12,3.33 a 10.87,10.87 0 0 1 3.79,-5 10.57,10.57 0 0 1 6.42,-1.91 9.55,9.55 0 0 1 6.12,1.93 11.05,11.05 0 0 1 3.6,5 z"
     class="cls-1" />
  <path
     id="path15"
     d="M 103.17,44.69 122.4,22.11 V 14.53 H 86.93 v 10.31 h 18.36 L 85.88,47.59 v 7.46 h 37.53 V 44.69 Z"
     class="cls-1" />
  <path
     id="path17"
     d="m 160.66,14.53 -0.51,3.13 a 21.38,21.38 0 0 0 -5.44,-3.11 19.08,19.08 0 0 0 -7.22,-1.31 23.29,23.29 0 0 0 -9,1.7 20.23,20.23 0 0 0 -6.82,4.63 20.51,20.51 0 0 0 -4.35,6.87 23.83,23.83 0 0 0 0,16.75 20.14,20.14 0 0 0 4.37,6.83 20.47,20.47 0 0 0 6.84,4.61 22.94,22.94 0 0 0 9,1.71 19.16,19.16 0 0 0 7.17,-1.29 22,22 0 0 0 5.45,-3.1 l 0.55,3.1 h 10.27 V 14.53 Z m -2,24.87 a 10.51,10.51 0 0 1 -2.32,3.55 9.84,9.84 0 0 1 -3.42,2.27 11.45,11.45 0 0 1 -8.41,0 10.29,10.29 0 0 1 -3.44,-2.28 11.19,11.19 0 0 1 -2.32,-3.56 12,12 0 0 1 -0.85,-4.61 12.12,12.12 0 0 1 0.83,-4.55 11,11 0 0 1 2.28,-3.52 10,10 0 0 1 3.43,-2.26 11.4,11.4 0 0 1 8.44,0 10.2,10.2 0 0 1 3.43,2.26 11.32,11.32 0 0 1 2.33,3.52 11.75,11.75 0 0 1 0.86,4.55 12.55,12.55 0 0 1 -0.89,4.63 z"
     class="cls-1" />
  <path
     id="path19"
     d="M 203.25,31.41 216.9,14.53 H 202.74 L 189.32,31.69 V 0 h -12.08 v 55.05 h 12.08 v -9.42 l 5.31,-6.33 9.13,15.75 h 14.41 z"
     class="cls-1" />
  <path
     style="fill:url(#linear-gradient)"
     id="path21"
     d="m 306.68,26.44 a 21,21 0 0 0 -4.66,-6.87 22.06,22.06 0 0 0 -7.14,-4.63 25.47,25.47 0 0 0 -18.3,0 22,22 0 0 0 -7.13,4.63 l -7.22,7.27 -7.14,-7.27 a 22.16,22.16 0 0 0 -7.16,-4.63 25.45,25.45 0 0 0 -18.29,0 22.17,22.17 0 0 0 -7.14,4.63 20.6,20.6 0 0 0 -4.62,6.87 21.34,21.34 0 0 0 -1.65,8.38 21.1,21.1 0 0 0 1.67,8.37 20.78,20.78 0 0 0 4.62,6.83 21.93,21.93 0 0 0 7.12,4.61 23.66,23.66 0 0 0 9.06,1.71 24.43,24.43 0 0 0 9.21,-1.69 21.8,21.8 0 0 0 7.18,-4.6 L 278.32,26.7 a 9.73,9.73 0 0 1 3.34,-2.26 10.33,10.33 0 0 1 4.09,-0.81 10.59,10.59 0 0 1 4.15,0.81 10,10 0 0 1 3.33,2.26 11,11 0 0 1 2.25,3.52 12.32,12.32 0 0 1 0.83,4.55 12.57,12.57 0 0 1 -0.83,4.61 10.53,10.53 0 0 1 -2.23,3.53 9.7,9.7 0 0 1 -3.32,2.28 10.86,10.86 0 0 1 -4.14,0.79 10.68,10.68 0 0 1 -4.09,-0.79 10,10 0 0 1 -3.36,-2.29 l -4.17,-4.16 -8,7.95 c 0,0 2.79,2.9 3.23,3.33 a 22,22 0 0 0 7.12,4.61 23.69,23.69 0 0 0 9.06,1.71 24.56,24.56 0 0 0 9.22,-1.69 21.71,21.71 0 0 0 7.16,-4.6 21.18,21.18 0 0 0 4.66,-6.86 22,22 0 0 0 0,-16.75 z m -60.36,16.47 a 9.84,9.84 0 0 1 -3.33,2.28 11.14,11.14 0 0 1 -8.24,0 10.19,10.19 0 0 1 -3.35,-2.29 10.86,10.86 0 0 1 -2.27,-3.54 13.14,13.14 0 0 1 0,-9.14 11,11 0 0 1 2.25,-3.52 9.79,9.79 0 0 1 3.33,-2.26 10.88,10.88 0 0 1 8.24,0 9.73,9.73 0 0 1 3.34,2.26 2.32,2.32 0 0 1 0.22,0.25 l 7.8,7.85 z"
     class="cls-2" />
</svg>
